HIERARCHY
ROOT Hips
{
  OFFSET 57.8838 95.319 338.509
  CHANNELS 6 Xposition Yposition Zposition Zrotation Xrotation Yrotation
  JOINT LeftUpLeg
  {
    OFFSET 8.64259 1.95398 -2.38835
    CHANNELS 3 Zrotation Xrotation Yrotation
    JOINT LeftLeg
    {
      OFFSET 43.7702 0 0
      CHANNELS 3 Zrotation Xrotation Yrotation
      JOINT LeftFoot
      {
        OFFSET 40.6238 0 0
        CHANNELS 3 Zrotation Xrotation Yrotation
        JOINT LeftToeBase
        {
          OFFSET 12.7242 0 0
          CHANNELS 3 Zrotation Xrotation Yrotation
          End Site
          {
            OFFSET 0 0 0
          }
        }
      }
    }
  }
  JOINT RightUpLeg
  {
    OFFSET -8.2249 1.95398 -2.59336
    CHANNELS 3 Zrotation Xrotation Yrotation
    JOINT RightLeg
    {
      OFFSET 43.5653 0 0
      CHANNELS 3 Zrotation Xrotation Yrotation
      JOINT RightFoot
      {
        OFFSET 40.6238 0 0
        CHANNELS 3 Zrotation Xrotation Yrotation
        JOINT RightToeBase
        {
          OFFSET 12.7242 0 0
          CHANNELS 3 Zrotation Xrotation Yrotation
          End Site
          {
            OFFSET 0 0 0
          }
        }
      }
    }
  }
  JOINT Spine
  {
    OFFSET 0.165834 0.87714 6.61349
    CHANNELS 3 Zrotation Xrotation Yrotation
    JOINT Spine1
    {
      OFFSET 7.38963 1.71661e-005 0
      CHANNELS 3 Zrotation Xrotation Yrotation
      JOINT Spine2
      {
        OFFSET 11.9445 1.14441e-005 0
        CHANNELS 3 Zrotation Xrotation Yrotation
        JOINT Spine3
        {
          OFFSET 14.7254 4.19617e-005 0
          CHANNELS 3 Zrotation Xrotation Yrotation
          JOINT Spine4
          {
            OFFSET 10.9679 0 0
            CHANNELS 3 Zrotation Xrotation Yrotation
            JOINT RightShoulder
            {
              OFFSET 2.46616 -1.6653 3.69651
              CHANNELS 3 Zrotation Xrotation Yrotation
              JOINT RightArm
              {
                OFFSET 13.0012 0 0
                CHANNELS 3 Zrotation Xrotation Yrotation
                JOINT RightForeArm
                {
                  OFFSET 28.7848 1.62311e-005 0
                  CHANNELS 3 Zrotation Xrotation Yrotation
                  JOINT RightHand
                  {
                    OFFSET 26.5688 1.62095e-005 0
                    CHANNELS 3 Zrotation Xrotation Yrotation
                    End Site
                    {
                      OFFSET 0 0 0
                    }
                  }
                }
              }
            }
            JOINT LeftShoulder
            {
              OFFSET 2.38034 -1.29275 -3.7523
              CHANNELS 3 Zrotation Xrotation Yrotation
              JOINT LeftArm
              {
                OFFSET 16.3182 6.07031e-005 0
                CHANNELS 3 Zrotation Xrotation Yrotation
                JOINT LeftForeArm
                {
                  OFFSET 27.0901 0 0
                  CHANNELS 3 Zrotation Xrotation Yrotation
                  JOINT LeftHand
                  {
                    OFFSET 24.5451 1.51738e-005 0
                    CHANNELS 3 Zrotation Xrotation Yrotation
                    End Site
                    {
                      OFFSET 0 0 0
                    }
                  }
                }
              }
            }
            JOINT Neck
            {
              OFFSET 5.0226 -0.0266342 0
              CHANNELS 3 Zrotation Xrotation Yrotation
              JOINT Head
              {
                OFFSET 6.69364 2.86102e-005 0
                CHANNELS 3 Zrotation Xrotation Yrotation
                End Site
                {
                  OFFSET 0 0 0
                }
              }
            }
          }
        }
      }
    }
  }
}
MOTION
Frames:	6
Frame Time:	0.0416667
-51.436 80.6478 34.2971 -72.713 -85.0331 -76.1887 -175.394 27.5147 117.042 -30.5089 18.4345 4.30924 44.2985 -15.7379 -6.05776 50.3033 11.0844 14.1725 160.106 56.6047 74.1437 -109.23 -24.3142 -1.47144 62.8785 1.06211 5.24811 38.2185 -12.8967 -2.02555 -0.786783 9.59556 -89.2796 7.68872 -1.25745 1.48793 -3.98252 -1.19075 1.54182 -26.5187 -1.64648 1.04124 -6.50609 -1.64648 1.04124 102.293 -27.5005 -81.789 -7.97916 7.74745 14.2007 -0.777286 -4.67204 -35.2024 -6.79495 0.102216 -7.56772 -80.2065 -24.3178 91.8145 11.0353 -17.7505 26.3699 -9.96409 3.16386 -17.649 8.62871 -0.612534 -9.79214 8.04493 7.17821 -22.9464 -0.092389 12.4849 34.5757 
-44.559 78.9656 34.697 -74.0392 -83.7759 -78.5983 -174.285 31.7725 112.725 -41.2598 10.3641 2.80492 55.4058 -4.91275 0.931833 50.9893 10.9044 11.0377 141.289 60.4929 96.1854 -111.628 -29.5985 -0.753815 63.3745 -0.321237 4.58102 39.9639 -15.4287 -2.65938 -0.94021 10.0088 -89.2281 6.86438 -1.54755 1.58401 -4.80668 -1.47636 1.65056 -27.3453 -1.95204 1.04564 -7.33267 -1.95204 1.04565 101.801 -32.3631 -82.7941 -2.5796 6.05084 14.476 0.149498 -2.51762 -33.9952 -4.55637 0.0806436 -8.21983 -79.1861 -33.8908 94.5267 7.51427 -18.8356 23.2642 -10.6042 -2.08404 -23.9247 8.90595 -0.589773 -9.42713 17.6371 6.07796 -28.5169 -6.26829 13.0004 40.1596 
-39.3759 77.1724 33.5372 -42.6502 -85.7054 -49.8603 -176.77 41.3539 108.599 -53.9787 17.6682 2.38801 54.6817 -5.3319 4.72328 54.686 13.1322 12.3391 124.775 59.7224 116.446 -104.794 -33.4046 1.51902 64.3645 -2.93067 1.99889 40.952 -17.2562 -4.3997 -1.18642 10.4339 -89.2476 6.01687 -2.05376 1.54044 -5.65348 -1.98398 1.62933 -28.1988 -2.42172 0.851788 -8.18609 -2.42172 0.851795 102.46 -40.2208 -81.4954 1.67271 8.56126 8.39731 1.23283 -1.00336 -28.521 -1.83384 0.00757907 -8.43467 -80.2298 -45.2 93.2307 6.83942 -21.0818 9.80369 -9.96583 -2.63963 -21.436 10.3667 -0.637474 -9.25084 27.0735 3.32493 -28.9037 -8.513 12.039 39.0785 
-34.5526 76.0031 33.3261 28.9678 -83.3652 19.8197 -176.728 48.1632 102.931 -58.8244 19.1128 1.16559 58.7391 0.566689 5.58509 54.8135 12.8146 10.5821 121.387 58.8946 123.177 -90.8503 -32.1868 5.8959 63.4496 -2.33813 -0.213424 40.1671 -16.041 -3.99303 -1.30217 10.3882 -89.4994 6.10726 -2.39047 1.05917 -5.562 -2.34154 1.1634 -28.1143 -2.59822 0.29134 -8.10168 -2.59821 0.291343 101.477 -46.6104 -83.1174 6.99393 7.65049 1.26837 -0.373677 -5.26823 -19.4626 4.33656 -0.16984 -8.37731 -83.5208 -49.0483 88.3737 1.66874 -23.1637 -9.53118 -7.62804 5.35914 -9.98018 8.28092 -0.654716 -10.4157 25.4398 2.11346 -22.3488 -2.16045 10.1671 32.1413 
-29.0268 75.4691 34.0434 67.1326 -82.702 53.9977 -170.273 47.2145 92.4794 -62.7187 24.7983 -1.29814 60.341 5.44996 12.9165 54.375 12.658 10.9199 136.341 57.8722 110.721 -81.0263 -29.6159 7.28753 62.257 -2.65627 -5.02268 28.6264 0.211878 -0.909233 -1.12391 10.8203 -89.6446 5.23925 -2.09842 0.738318 -6.43026 -2.06389 0.829984 -28.979 -2.22326 0.0732384 -8.96634 -2.22327 0.0732065 99.0441 -50.9075 -86.7903 8.90578 4.04006 -5.93492 -1.31681 -13.093 -12.4347 10.7619 -0.403944 -8.90284 -87.3266 -52.4816 83.1439 -5.1766 -22.9037 -27.38 -6.81992 16.9938 -3.17867 7.51949 -0.789831 -12.4363 24.4813 0.301916 -11.9443 2.60839 5.56434 24.6986 
-24.5089 75.0399 34.4173 104.804 -78.5219 86.896 -166.39 44.254 82.8786 -67.3166 24.1932 -2.26673 60.8358 5.71983 12.3782 53.4583 11.66 8.36766 151.901 54.0273 98.1078 -80.9326 -22.43 3.96202 61.5981 -16.7771 -22.0992 35.9795 -9.24988 2.36448 -1.09376 11.345 -89.8881 4.18531 -2.13992 0.231087 -7.48391 -2.12768 0.325072 -30.0329 -2.11041 -0.423024 -10.0203 -2.11041 -0.423042 96.1087 -51.6499 -91.2174 8.88654 0.615983 -11.4504 0.127855 -14.123 -9.68166 8.37294 -0.245847 -7.81431 -89.2869 -52.8026 80.3456 -12.9184 -17.9527 -39.1657 -5.81156 27.6358 -5.01335 6.84321 -0.848531 -13.7548 22.8046 -1.80417 -3.43668 5.91751 0.781999 18.5867 
